<?xml version="1.0" encoding="UTF-8" standalone="no"?>
<!DOCTYPE svg PUBLIC "-//W3C//DTD SVG 1.1//EN"
 "http://www.w3.org/Graphics/SVG/1.1/DTD/svg11.dtd">
<!-- Generated by graphviz version 2.43.0 (0)
 -->
<!-- Title: %3 Pages: 1 -->
<svg width="276pt" height="720pt"
 viewBox="0.00 0.00 276.33 720.00" xmlns="http://www.w3.org/2000/svg" xmlns:xlink="http://www.w3.org/1999/xlink">
<g id="graph0" class="graph" transform="scale(0.67 0.67) rotate(0) translate(4 1063.66)">
<title>%3</title>
<polygon fill="white" stroke="transparent" points="-4,4 -4,-1063.66 405.76,-1063.66 405.76,4 -4,4"/>
<!-- A -->
<g id="node1" class="node">
<title>A</title>
<ellipse fill="none" stroke="black" cx="246.57" cy="-1032.79" rx="136.44" ry="26.74"/>
<text text-anchor="middle" x="246.57" y="-1036.59" font-family="Times,serif" font-size="14.00">Human Intent</text>
<text text-anchor="middle" x="246.57" y="-1021.59" font-family="Times,serif" font-size="14.00">Goal, Constraints, Scope</text>
</g>
<!-- B -->
<g id="node2" class="node">
<title>B</title>
<ellipse fill="none" stroke="black" cx="246.57" cy="-943.05" rx="125.32" ry="26.74"/>
<text text-anchor="middle" x="246.57" y="-946.85" font-family="Times,serif" font-size="14.00">ChatGPT</text>
<text text-anchor="middle" x="246.57" y="-931.85" font-family="Times,serif" font-size="14.00">Architecture &amp; Design</text>
</g>
<!-- A&#45;&gt;B -->
<g id="edge1" class="edge">
<title>A&#45;&gt;B</title>
<path fill="none" stroke="black" d="M246.57,-1005.47C246.57,-997.5 246.57,-988.61 246.57,-980.12"/>
<polygon fill="black" stroke="black" points="250.07,-980.05 246.57,-970.05 243.07,-980.05 250.07,-980.05"/>
</g>
<!-- C -->
<g id="node3" class="node">
<title>C</title>
<ellipse fill="none" stroke="black" cx="159.57" cy="-853.31" rx="146.24" ry="26.74"/>
<text text-anchor="middle" x="159.57" y="-857.11" font-family="Times,serif" font-size="14.00">Handoff Package</text>
<text text-anchor="middle" x="159.57" y="-842.11" font-family="Times,serif" font-size="14.00">HANDOFF_TEMPLATE.md</text>
</g>
<!-- B&#45;&gt;C -->
<g id="edge2" class="edge">
<title>B&#45;&gt;C</title>
<path fill="none" stroke="black" d="M221.41,-916.67C212.29,-907.48 201.86,-896.96 192.19,-887.21"/>
<polygon fill="black" stroke="black" points="194.51,-884.57 184.98,-879.94 189.54,-889.5 194.51,-884.57"/>
</g>
<!-- D -->
<g id="node4" class="node">
<title>D</title>
<ellipse fill="none" stroke="black" cx="159.57" cy="-763.57" rx="124.4" ry="26.74"/>
<text text-anchor="middle" x="159.57" y="-767.37" font-family="Times,serif" font-size="14.00">Cursor AI</text>
<text text-anchor="middle" x="159.57" y="-752.37" font-family="Times,serif" font-size="14.00">Implementation Agent</text>
</g>
<!-- C&#45;&gt;D -->
<g id="edge3" class="edge">
<title>C&#45;&gt;D</title>
<path fill="none" stroke="black" d="M159.57,-825.99C159.57,-818.02 159.57,-809.13 159.57,-800.64"/>
<polygon fill="black" stroke="black" points="163.07,-800.57 159.57,-790.57 156.07,-800.57 163.07,-800.57"/>
</g>
<!-- E -->
<g id="node5" class="node">
<title>E</title>
<ellipse fill="none" stroke="black" cx="159.57" cy="-673.83" rx="120.83" ry="26.74"/>
<text text-anchor="middle" x="159.57" y="-677.63" font-family="Times,serif" font-size="14.00">Code Changes</text>
<text text-anchor="middle" x="159.57" y="-662.63" font-family="Times,serif" font-size="14.00">Scoped &amp; Mechanical</text>
</g>
<!-- D&#45;&gt;E -->
<g id="edge4" class="edge">
<title>D&#45;&gt;E</title>
<path fill="none" stroke="black" d="M159.57,-736.25C159.57,-728.28 159.57,-719.39 159.57,-710.9"/>
<polygon fill="black" stroke="black" points="163.07,-710.83 159.57,-700.83 156.07,-710.83 163.07,-710.83"/>
</g>
<!-- F -->
<g id="node6" class="node">
<title>F</title>
<ellipse fill="none" stroke="black" cx="162.57" cy="-592.96" rx="74.19" ry="18"/>
<text text-anchor="middle" x="162.57" y="-589.26" font-family="Times,serif" font-size="14.00">Build Passes?</text>
</g>
<!-- E&#45;&gt;F -->
<g id="edge5" class="edge">
<title>E&#45;&gt;F</title>
<path fill="none" stroke="black" d="M160.57,-646.57C160.88,-638.47 161.22,-629.53 161.53,-621.35"/>
<polygon fill="black" stroke="black" points="165.03,-621.31 161.92,-611.18 158.04,-621.04 165.03,-621.31"/>
</g>
<!-- G -->
<g id="node7" class="node">
<title>G</title>
<ellipse fill="none" stroke="black" cx="293.57" cy="-116.61" rx="108.38" ry="26.74"/>
<text text-anchor="middle" x="293.57" y="-120.41" font-family="Times,serif" font-size="14.00">Stop / Escalate</text>
<text text-anchor="middle" x="293.57" y="-105.41" font-family="Times,serif" font-size="14.00">Return to ChatGPT</text>
</g>
<!-- F&#45;&gt;G -->
<g id="edge6" class="edge">
<title>F&#45;&gt;G</title>
<path fill="none" stroke="black" d="M199.22,-577.08C217.25,-568.23 238.14,-555.49 252.57,-538.96 283.59,-503.43 293.57,-488.25 293.57,-441.09 293.57,-441.09 293.57,-441.09 293.57,-277.35 293.57,-234.99 293.57,-186.32 293.57,-153.94"/>
<polygon fill="black" stroke="black" points="297.07,-153.62 293.57,-143.62 290.07,-153.62 297.07,-153.62"/>
</g>
<!-- H -->
<g id="node8" class="node">
<title>H</title>
<ellipse fill="none" stroke="black" cx="162.57" cy="-520.96" rx="81.49" ry="18"/>
<text text-anchor="middle" x="162.57" y="-517.26" font-family="Times,serif" font-size="14.00">Human Review</text>
</g>
<!-- F&#45;&gt;H -->
<g id="edge8" class="edge">
<title>F&#45;&gt;H</title>
<path fill="none" stroke="black" d="M162.57,-574.66C162.57,-666.94 162.57,-557.67 162.57,-549.07"/>
<polygon fill="black" stroke="black" points="166.07,-549.06 162.57,-539.06 159.07,-549.06 166.07,-549.06"/>
</g>
<!-- G&#45;&gt;B -->
<g id="edge7" class="edge">
<title>G&#45;&gt;B</title>
<path fill="none" stroke="black" d="M304.19,-143.4C316.04,-174.57 333.57,-228.89 333.57,-277.35 333.57,-764.57 333.57,-764.57 333.57,-764.57 333.57,-816.64 339.43,-834.43 314.57,-880.18 308.5,-891.36 299.62,-901.57 290.26,-910.34"/>
<polygon fill="black" stroke="black" points="287.86,-907.79 282.71,-917.05 292.51,-913.03 287.86,-907.79"/>
</g>
<!-- I -->
<g id="node9" class="node">
<title>I</title>
<ellipse fill="none" stroke="black" cx="162.57" cy="-440.09" rx="88.28" ry="26.74"/>
<text text-anchor="middle" x="162.57" y="-443.89" font-family="Times,serif" font-size="14.00">SOP &amp; Handoff</text>
<text text-anchor="middle" x="162.57" y="-428.89" font-family="Times,serif" font-size="14.00">Compliant?</text>
</g>
<!-- H&#45;&gt;I -->
<g id="edge9" class="edge">
<title>H&#45;&gt;I</title>
<path fill="none" stroke="black" d="M162.57,-502.85C162.57,-495.36 162.57,-486.27 162.57,-477.39"/>
<polygon fill="black" stroke="black" points="166.07,-477.17 162.57,-467.17 159.07,-477.17 166.07,-477.17"/>
</g>
<!-- I&#45;&gt;G -->
<g id="edge10" class="edge">
<title>I&#45;&gt;G</title>
<path fill="none" stroke="black" d="M197.25,-415.06C209.77,-404.75 222.93,-391.74 231.57,-377.22 234.47,-372.36 269.06,-223.68 285.28,-153.56"/>
<polygon fill="black" stroke="black" points="288.69,-154.34 287.53,-143.81 281.87,-152.76 288.69,-154.34"/>
</g>
<!-- J -->
<g id="node10" class="node">
<title>J</title>
<ellipse fill="none" stroke="black" cx="152.57" cy="-359.22" rx="69.59" ry="18"/>
<text text-anchor="middle" x="152.57" y="-355.52" font-family="Times,serif" font-size="14.00">Pull Request</text>
</g>
<!-- I&#45;&gt;J -->
<g id="edge11" class="edge">
<title>I&#45;&gt;J</title>
<path fill="none" stroke="black" d="M159.24,-412.83C158.22,-404.73 157.08,-395.79 156.05,-387.61"/>
<polygon fill="black" stroke="black" points="159.49,-386.92 154.76,-377.44 152.54,-387.8 159.49,-386.92"/>
</g>
<!-- K -->
<g id="node11" class="node">
<title>K</title>
<ellipse fill="none" stroke="black" cx="136.57" cy="-278.35" rx="90.52" ry="26.74"/>
<text text-anchor="middle" x="136.57" y="-282.15" font-family="Times,serif" font-size="14.00">PR Checklist</text>
<text text-anchor="middle" x="136.57" y="-267.15" font-family="Times,serif" font-size="14.00">+ AI Disclosure</text>
</g>
<!-- J&#45;&gt;K -->
<g id="edge12" class="edge">
<title>J&#45;&gt;K</title>
<path fill="none" stroke="black" d="M149.1,-341.11C147.56,-333.54 145.7,-324.33 143.88,-315.36"/>
<polygon fill="black" stroke="black" points="147.28,-314.54 141.86,-305.43 140.42,-315.93 147.28,-314.54"/>
</g>
<!-- L -->
<g id="node12" class="node">
<title>L</title>
<ellipse fill="none" stroke="black" cx="136.57" cy="-197.48" rx="59.59" ry="18"/>
<text text-anchor="middle" x="136.57" y="-193.78" font-family="Times,serif" font-size="14.00">Approved?</text>
</g>
<!-- K&#45;&gt;L -->
<g id="edge13" class="edge">
<title>K&#45;&gt;L</title>
<path fill="none" stroke="black" d="M136.57,-251.09C136.57,-242.99 136.57,-234.05 136.57,-225.87"/>
<polygon fill="black" stroke="black" points="140.07,-225.7 136.57,-215.7 133.07,-225.7 140.07,-225.7"/>
</g>
<!-- L&#45;&gt;G -->
<g id="edge14" class="edge">
<title>L&#45;&gt;G</title>
<path fill="none" stroke="black" d="M166.1,-181.65C186.34,-171.48 213.82,-157.67 238.08,-145.49"/>
<polygon fill="black" stroke="black" points="239.83,-148.52 247.2,-140.91 236.69,-142.27 239.83,-148.52"/>
</g>
<!-- M -->
<g id="node13" class="node">
<title>M</title>
<ellipse fill="none" stroke="black" cx="126.57" cy="-116.61" rx="40.89" ry="18"/>
<text text-anchor="middle" x="126.57" y="-112.91" font-family="Times,serif" font-size="14.00">Merge</text>
</g>
<!-- L&#45;&gt;M -->
<g id="edge15" class="edge">
<title>L&#45;&gt;M</title>
<path fill="none" stroke="black" d="M134.4,-179.37C133.12,-169.24 131.46,-156.18 130,-144.68"/>
<polygon fill="black" stroke="black" points="133.47,-144.17 128.74,-134.69 126.52,-145.05 133.47,-144.17"/>
</g>
<!-- N -->
<g id="node14" class="node">
<title>N</title>
<ellipse fill="none" stroke="black" cx="126.57" cy="-26.87" rx="126.64" ry="26.74"/>
<text text-anchor="middle" x="126.57" y="-30.67" font-family="Times,serif" font-size="14.00">Freeze &amp; Document</text>
<text text-anchor="middle" x="126.57" y="-15.67" font-family="Times,serif" font-size="14.00">If Interfaces Stabilized</text>
</g>
<!-- M&#45;&gt;N -->
<g id="edge16" class="edge">
<title>M&#45;&gt;N</title>
<path fill="none" stroke="black" d="M126.57,-98.28C126.57,-88.46 126.57,-75.82 126.57,-63.95"/>
<polygon fill="black" stroke="black" points="130.07,-63.82 126.57,-53.82 123.07,-63.82 130.07,-63.82"/>
</g>
</g>
</svg>
